<svg id="visual" viewBox="0 0 900 600" width="900" height="600" xmlns="http://www.w3.org/2000/svg" xmlns:xlink="http://www.w3.org/1999/xlink" version="1.1"><rect x="0" y="0" width="900" height="600" fill="#1B1F24"></rect><path d="M0 472L11.5 468.2C23 464.3 46 456.7 69 456.7C92 456.7 115 464.3 138.2 463.3C161.3 462.3 184.7 452.7 207.8 442.8C231 433 254 423 277 421.8C300 420.7 323 428.3 346 431.2C369 434 392 432 415.2 444C438.3 456 461.7 482 484.8 488.7C508 495.3 531 482.7 554 468.5C577 454.3 600 438.7 623 428.5C646 418.3 669 413.7 692.2 427.8C715.3 442 738.7 475 761.8 477.3C785 479.7 808 451.3 831 446.7C854 442 877 461 888.5 470.5L900 480L900 601L888.5 601C877 601 854 601 831 601C808 601 785 601 761.8 601C738.7 601 715.3 601 692.2 601C669 601 646 601 623 601C600 601 577 601 554 601C531 601 508 601 484.8 601C461.7 601 438.3 601 415.2 601C392 601 369 601 346 601C323 601 300 601 277 601C254 601 231 601 207.8 601C184.7 601 161.3 601 138.2 601C115 601 92 601 69 601C46 601 23 601 11.5 601L0 601Z" fill="#22272f" stroke-linecap="round" stroke-linejoin="miter"></path></svg>